<svg xmlns="http://www.w3.org/2000/svg" width="144.15" height="13.95" viewBox="0 0 144.15 13.95">
    <path d="M0 .81h1.95v4.2h5.055V.81h1.95v10.2h-1.95v-4.3H1.95v4.3H0zm13.215 9.21l-3.09-6.735h2.04l2.055 4.62 1.905-4.62h2.055l-4.53 10.32h-2.06zm13.08.99H24.39V9.93a2.621 2.621 0 0 1-.93.892 2.906 2.906 0 0 1-1.515.368 3.182 3.182 0 0 1-1.305-.247 2.438 2.438 0 0 1-.915-.69 2.98 2.98 0 0 1-.54-1.057 4.85 4.85 0 0 1-.18-1.365V3.285h1.905V7.62q0 1.875 1.71 1.875a1.67 1.67 0 0 0 1.163-.412 1.993 1.993 0 0 0 .608-.938v-4.86h1.905zm1.8-7.725H30v1.08a2.621 2.621 0 0 1 .93-.892 2.906 2.906 0 0 1 1.515-.368 3.182 3.182 0 0 1 1.305.247 2.438 2.438 0 0 1 .915.69 2.974 2.974 0 0 1 .54 1.065 4.871 4.871 0 0 1 .18 1.358v4.545H33.48V6.675q0-1.875-1.71-1.875a1.67 1.67 0 0 0-1.163.412 1.993 1.993 0 0 0-.608.938v4.86H28.09zm14.715 6.84a3.354 3.354 0 0 1-1.043.772 3.124 3.124 0 0 1-1.372.293 3.835 3.835 0 0 1-1.493-.285 3.35 3.35 0 0 1-1.178-.818 3.8 3.8 0 0 1-.771-1.277 4.7 4.7 0 0 1-.278-1.658 4.767 4.767 0 0 1 .278-1.665 3.707 3.707 0 0 1 .772-1.277 3.486 3.486 0 0 1 1.178-.817 3.749 3.749 0 0 1 1.493-.293 3.058 3.058 0 0 1 1.372.3 3.456 3.456 0 0 1 1.043.78V.36h1.9v10.65h-1.9zm-2-.63a2.394 2.394 0 0 0 1.193-.307 1.876 1.876 0 0 0 .8-.848V5.97a1.861 1.861 0 0 0-.8-.863A2.394 2.394 0 0 0 40.81 4.8a2.379 2.379 0 0 0-.87.158 1.946 1.946 0 0 0-.7.457 2.184 2.184 0 0 0-.465.742 2.728 2.728 0 0 0-.173 1 2.669 2.669 0 0 0 .173.99 2.2 2.2 0 0 0 .465.735 1.946 1.946 0 0 0 .7.458 2.379 2.379 0 0 0 .875.155zm11.43.63a3.354 3.354 0 0 1-1.043.772 3.124 3.124 0 0 1-1.367.293 3.835 3.835 0 0 1-1.493-.285 3.35 3.35 0 0 1-1.177-.818 3.8 3.8 0 0 1-.77-1.277 4.7 4.7 0 0 1-.278-1.658 4.767 4.767 0 0 1 .278-1.662 3.707 3.707 0 0 1 .77-1.28 3.486 3.486 0 0 1 1.178-.817 3.749 3.749 0 0 1 1.493-.293 3.058 3.058 0 0 1 1.372.3 3.456 3.456 0 0 1 1.043.78v-.9h1.9v7.73h-1.9zm-2-.63a2.394 2.394 0 0 0 1.193-.307 1.876 1.876 0 0 0 .8-.848V5.97a1.861 1.861 0 0 0-.8-.863A2.394 2.394 0 0 0 50.25 4.8a2.379 2.379 0 0 0-.87.158 1.946 1.946 0 0 0-.7.457 2.184 2.184 0 0 0-.465.742 2.728 2.728 0 0 0-.173 1 2.669 2.669 0 0 0 .173.99 2.2 2.2 0 0 0 .465.735 1.946 1.946 0 0 0 .7.458 2.379 2.379 0 0 0 .87.155zm5.715-6.21h1.9v7.725h-1.9zM55.925 0h1.95v1.98h-1.95zm10.81 11.16a4.352 4.352 0 0 1-1.425-.217 4.554 4.554 0 0 1-1.125-.563 4.271 4.271 0 0 1-.855-.78 5.316 5.316 0 0 1-.6-.885l.615-.42a4.742 4.742 0 0 0 .517.787 3.56 3.56 0 0 0 .72.675 3.634 3.634 0 0 0 .945.472 3.761 3.761 0 0 0 1.208.18 3.79 3.79 0 0 0 1.245-.186 2.616 2.616 0 0 0 .9-.51 2.1 2.1 0 0 0 .54-.743 2.26 2.26 0 0 0 .18-.9 1.694 1.694 0 0 0-.18-.8 1.778 1.778 0 0 0-.5-.593 2.959 2.959 0 0 0-.757-.412 4.527 4.527 0 0 0-.93-.24l-1.08-.18a3.754 3.754 0 0 1-1.9-.84 2.18 2.18 0 0 1-.735-1.725 2.291 2.291 0 0 1 .218-.968 2.461 2.461 0 0 1 .645-.84A3.342 3.342 0 0 1 65.424.88a4.138 4.138 0 0 1 1.425-.225 3.955 3.955 0 0 1 2 .48 3.363 3.363 0 0 1 1.276 1.275l-.615.42a2.838 2.838 0 0 0-1.192-1.1 3.479 3.479 0 0 0-1.478-.32 3.486 3.486 0 0 0-1.057.15 2.573 2.573 0 0 0-.8.4 1.844 1.844 0 0 0-.51.593 1.522 1.522 0 0 0-.18.727 1.5 1.5 0 0 0 .547 1.237 2.786 2.786 0 0 0 1.388.563l1.11.18a4.451 4.451 0 0 1 2.235.915 2.352 2.352 0 0 1 .81 1.89 3.007 3.007 0 0 1-.24 1.192 2.783 2.783 0 0 1-.705.982 3.437 3.437 0 0 1-1.148.671 4.536 4.536 0 0 1-1.555.25zm11.715-.15h-.72V9.795a2.364 2.364 0 0 1-.367.48 2.834 2.834 0 0 1-.548.435 3.171 3.171 0 0 1-.72.322 2.988 2.988 0 0 1-.9.127 2.944 2.944 0 0 1-2.213-.825 3.329 3.329 0 0 1-.8-2.415v-4.2h.72v4.125a2.715 2.715 0 0 0 .622 1.942 2.241 2.241 0 0 0 1.7.652 2.764 2.764 0 0 0 .908-.142 2.58 2.58 0 0 0 .728-.386 2.581 2.581 0 0 0 .54-.555 2.228 2.228 0 0 0 .33-.675V3.72h.72zm3.09 0h-.72V.36h.72v4.575a3.3 3.3 0 0 1 1.15-1.005 3.245 3.245 0 0 1 1.538-.36 3.678 3.678 0 0 1 1.44.278 3.384 3.384 0 0 1 1.147.787 3.712 3.712 0 0 1 .765 1.207 4.082 4.082 0 0 1 .278 1.523 4.066 4.066 0 0 1-.278 1.53 3.731 3.731 0 0 1-.765 1.2 3.384 3.384 0 0 1-1.147.788 3.678 3.678 0 0 1-1.44.278 3.245 3.245 0 0 1-1.538-.361 3.358 3.358 0 0 1-1.15-.99zm2.685-.57a2.91 2.91 0 0 0 1.125-.217 2.733 2.733 0 0 0 .915-.615 2.862 2.862 0 0 0 .615-.968 3.447 3.447 0 0 0 .225-1.275 3.447 3.447 0 0 0-.225-1.275 2.862 2.862 0 0 0-.615-.968 2.733 2.733 0 0 0-.915-.612 2.91 2.91 0 0 0-1.125-.218 2.963 2.963 0 0 0-1.65.458 2.738 2.738 0 0 0-1.035 1.19v2.87a2.757 2.757 0 0 0 1.035 1.178 2.963 2.963 0 0 0 1.65.452zm7.765.72a3.361 3.361 0 0 1-.99-.142 3.885 3.885 0 0 1-.855-.375 3.724 3.724 0 0 1-.7-.532 3.272 3.272 0 0 1-.5-.615l.585-.465a2.992 2.992 0 0 0 .99 1 2.669 2.669 0 0 0 1.47.409 3.391 3.391 0 0 0 .825-.1 2.279 2.279 0 0 0 .682-.285 1.422 1.422 0 0 0 .465-.48 1.349 1.349 0 0 0 .173-.7 1.051 1.051 0 0 0-.488-.907 3.112 3.112 0 0 0-1.342-.457l-.63-.09a3.329 3.329 0 0 1-1.515-.578 1.511 1.511 0 0 1-.6-1.3 1.817 1.817 0 0 1 .158-.735 1.854 1.854 0 0 1 .465-.638 2.26 2.26 0 0 1 .78-.443 3.344 3.344 0 0 1 1.1-.165 2.984 2.984 0 0 1 1.455.352 3.075 3.075 0 0 1 1.05.923l-.578.473a2.264 2.264 0 0 0-1.92-1.02 1.923 1.923 0 0 0-1.327.39 1.16 1.16 0 0 0-.428.87.881.881 0 0 0 .4.787 2.554 2.554 0 0 0 1.072.353l.63.09a3.8 3.8 0 0 1 1.807.683 1.7 1.7 0 0 1 .666 1.417 1.985 1.985 0 0 1-.21.9 2.213 2.213 0 0 1-.585.728 2.741 2.741 0 0 1-.915.48 3.878 3.878 0 0 1-1.19.172zm7.815 0a3.678 3.678 0 0 1-1.44-.278 3.384 3.384 0 0 1-1.147-.788 3.732 3.732 0 0 1-.765-1.2 4.066 4.066 0 0 1-.277-1.53 4.082 4.082 0 0 1 .277-1.523 3.712 3.712 0 0 1 .765-1.207 3.384 3.384 0 0 1 1.147-.787 3.678 3.678 0 0 1 1.44-.278 3.587 3.587 0 0 1 1.912.51A3.444 3.444 0 0 1 103 5.459l-.645.36a2.614 2.614 0 0 0-1.035-1.133 2.929 2.929 0 0 0-1.515-.4 3 3 0 0 0-1.125.21 2.641 2.641 0 0 0-.915.607 2.862 2.862 0 0 0-.615.968 3.49 3.49 0 0 0-.225 1.29 3.49 3.49 0 0 0 .225 1.29 2.862 2.862 0 0 0 .615.967 2.641 2.641 0 0 0 .915.608 3 3 0 0 0 1.125.21 2.929 2.929 0 0 0 1.515-.4 2.614 2.614 0 0 0 1.04-1.126l.645.36a3.444 3.444 0 0 1-1.283 1.38 3.587 3.587 0 0 1-1.912.51zm4.965-7.44h.72v1.395a2.638 2.638 0 0 1 .39-.593 2.735 2.735 0 0 1 .555-.487 2.812 2.812 0 0 1 .72-.338 2.988 2.988 0 0 1 .9-.128h.09v.75a3.008 3.008 0 0 0-1.658.525 2.854 2.854 0 0 0-1 1.365v4.801h-.72zm4.845 0h.72v7.29h-.72zm0-3.36h.72v1.665h-.72zm3.09 3.36h.72v1.215a3.3 3.3 0 0 1 1.147-1.005 3.245 3.245 0 0 1 1.538-.36 3.678 3.678 0 0 1 1.44.278 3.384 3.384 0 0 1 1.147.787 3.712 3.712 0 0 1 .765 1.207 4.082 4.082 0 0 1 .278 1.523 4.066 4.066 0 0 1-.278 1.53 3.731 3.731 0 0 1-.765 1.2 3.384 3.384 0 0 1-1.147.788 3.678 3.678 0 0 1-1.44.278 3.245 3.245 0 0 1-1.538-.36 3.358 3.358 0 0 1-1.147-.99v4.139h-.72zm3.405 6.72a2.91 2.91 0 0 0 1.125-.217 2.733 2.733 0 0 0 .915-.615 2.862 2.862 0 0 0 .615-.968 3.447 3.447 0 0 0 .225-1.275 3.447 3.447 0 0 0-.225-1.275 2.862 2.862 0 0 0-.615-.968 2.733 2.733 0 0 0-.915-.615 2.91 2.91 0 0 0-1.125-.218 2.963 2.963 0 0 0-1.65.458 2.738 2.738 0 0 0-1.03 1.193v2.87a2.757 2.757 0 0 0 1.035 1.178 2.963 2.963 0 0 0 1.65.452zm8.145.615a2.417 2.417 0 0 1-1.725-.555 2.344 2.344 0 0 1-.585-1.77V4.38h-1.335v-.66h1.335V1.8h.72v1.92h1.935v.66h-1.93V8.7a1.685 1.685 0 0 0 .42 1.31 2.11 2.11 0 0 0 1.4.37h.12v.645a1.492 1.492 0 0 1-.158.022q-.087.008-.192.008zm1.89-7.335h.72v7.29h-.72zm0-3.36h.72v1.665h-.72zm6.23 10.8a3.678 3.678 0 0 1-1.44-.278 3.384 3.384 0 0 1-1.145-.787 3.731 3.731 0 0 1-.765-1.2 4.066 4.066 0 0 1-.277-1.53 4.082 4.082 0 0 1 .277-1.523 3.712 3.712 0 0 1 .765-1.207 3.384 3.384 0 0 1 1.148-.787 3.678 3.678 0 0 1 1.44-.278 3.678 3.678 0 0 1 1.44.278 3.384 3.384 0 0 1 1.148.787 3.712 3.712 0 0 1 .765 1.207 4.082 4.082 0 0 1 .277 1.523 4.066 4.066 0 0 1-.277 1.53 3.731 3.731 0 0 1-.765 1.2 3.384 3.384 0 0 1-1.148.788 3.678 3.678 0 0 1-1.443.277zm0-.72a2.91 2.91 0 0 0 1.125-.217 2.733 2.733 0 0 0 .915-.615 2.863 2.863 0 0 0 .615-.968 3.447 3.447 0 0 0 .225-1.275 3.447 3.447 0 0 0-.225-1.275 2.863 2.863 0 0 0-.615-.968 2.733 2.733 0 0 0-.915-.615 2.91 2.91 0 0 0-1.125-.218 2.91 2.91 0 0 0-1.125.218 2.733 2.733 0 0 0-.915.615 2.863 2.863 0 0 0-.615.968 3.447 3.447 0 0 0-.225 1.275 3.447 3.447 0 0 0 .225 1.275 2.863 2.863 0 0 0 .615.968 2.733 2.733 0 0 0 .915.615 2.91 2.91 0 0 0 1.125.217zm5.505-6.72h.72v1.215a2.364 2.364 0 0 1 .368-.48 2.833 2.833 0 0 1 .548-.435 3.171 3.171 0 0 1 .72-.323 2.988 2.988 0 0 1 .9-.128 2.944 2.944 0 0 1 2.212.825 3.329 3.329 0 0 1 .8 2.415v4.201h-.72V6.885a2.715 2.715 0 0 0-.622-1.943 2.241 2.241 0 0 0-1.7-.653 2.764 2.764 0 0 0-.908.143 2.58 2.58 0 0 0-.728.383 2.582 2.582 0 0 0-.54.555 2.228 2.228 0 0 0-.33.675v4.965h-.72z" data-name="Path 370"/>
</svg>
