<svg xmlns="http://www.w3.org/2000/svg" width="147.855" height="13.657" viewBox="0 0 147.855 13.657">
    <g data-name="Group 499">
        <path d="M13.243 0h-3.57L7.667 5.27c-.187.527-.323.918-.765 2.346l-.255.782h-.068l-.255-.8c-.476-1.445-.595-1.819-.8-2.346L3.497 0h-3.5v11.339h2.145V5.151c0-.7-.017-1.054-.085-2.482l-.051-.816h.068l.255.782c.476 1.462.6 1.819.816 2.363l2.516 6.341h1.955l2.5-6.392c.187-.493.306-.884.782-2.363l.255-.782h.068l-.034.833c-.069 1.479-.09 1.704-.09 2.516v6.188h2.142zm3.893 5.7c.034-.952.289-1.139 1.5-1.139 1.292 0 1.615.306 1.615 1.564v1.292h-.034c-.323-.714-.867-.918-2.414-.918-2.125 0-2.924.68-2.924 2.482 0 1.819.765 2.465 2.89 2.465 1.513 0 2.091-.272 2.516-1.19h.051l-.089 1.083h1.921V6.154c0-2.21-.816-2.856-3.6-2.856-1.768 0-2.6.221-3.026.833a2.448 2.448 0 0 0-.34 1.564zm1.361 2.069c1.377 0 1.768.255 1.768 1.156 0 .884-.408 1.156-1.768 1.156s-1.666-.221-1.666-1.207c-.001-.884.339-1.105 1.666-1.105zM25.943 0h-1.922v11.339h1.921v-4.5c0-1.479.476-1.989 1.921-1.989.663 0 1.02.136 1.224.493.153.238.17.391.17 1.122v4.874h1.921V5.95c0-1.887-.782-2.652-2.737-2.652-1.479 0-2.057.34-2.465 1.411h-.034zm9.01 0h-1.922v1.632h1.921zm0 3.4h-1.922v7.939h1.921zm1.87 0v7.939h1.954V6.63c0-1.241.578-1.785 1.87-1.785 1.173 0 1.411.289 1.411 1.717v4.777h1.921V5.933a3.009 3.009 0 0 0-.272-1.594 2.685 2.685 0 0 0-2.516-1.037 2.263 2.263 0 0 0-2.465 1.437h-.034l.068-1.343zm16.1-3.4h-1.926v4.522l-.034.017c-.34-.884-1.02-1.241-2.363-1.241a2.89 2.89 0 0 0-2.329.782c-.544.629-.714 1.36-.714 3.145 0 2.125.153 2.856.731 3.468a3.2 3.2 0 0 0 2.366.746c1.377 0 2.023-.374 2.431-1.394l.034.017-.068 1.277h1.87zm-3.74 4.828c1.5 0 1.819.425 1.819 2.38 0 2.346-.255 2.737-1.8 2.737-1.428 0-1.7-.442-1.7-2.686-.005-2.02.268-2.431 1.679-2.431zm5.61-1.428v7.939h1.921V6.664a2.923 2.923 0 0 1 .136-1.156 1.27 1.27 0 0 1 1.258-.714c.765 0 .986.272.986 1.241a3.7 3.7 0 0 1-.017.442h1.8v-.578a2.772 2.772 0 0 0-.493-2.023 2.088 2.088 0 0 0-1.6-.6 2.11 2.11 0 0 0-2.157 1.246l-.03-.017.119-1.105zm9.2 2.3c.034-.952.289-1.139 1.5-1.139 1.292 0 1.615.306 1.615 1.564v1.292h-.034c-.323-.714-.867-.918-2.414-.918-2.125 0-2.924.68-2.924 2.482-.009 1.814.756 2.458 2.881 2.458 1.513 0 2.091-.272 2.516-1.19h.051l-.087 1.09h1.921V6.154c0-2.21-.816-2.856-3.6-2.856-1.768 0-2.6.221-3.026.833a2.448 2.448 0 0 0-.34 1.564zm1.36 2.074c1.377 0 1.768.255 1.768 1.156 0 .884-.408 1.156-1.768 1.156s-1.666-.221-1.666-1.207c-.005-.889.335-1.11 1.661-1.11z" data-name="Path 368"/>
        <path d="M83.259 4.057v-.154a2.648 2.648 0 0 0-.406-1.708c-.434-.588-1.148-.77-2.912-.77-1.6 0-2.268.126-2.8.546a2.484 2.484 0 0 0-.7 2.114c0 1.172.308 1.802 1.064 2.18.462.21.588.238 2.324.322 1.708.1 1.708.1 1.974.21.42.168.574.532.574 1.316 0 1.736-.238 1.932-2.492 1.932-1.68 0-1.988-.07-2.24-.546-.182-.336-.2-.518-.21-1.526h-1.05a6.782 6.782 0 0 0 .126 1.47 1.745 1.745 0 0 0 .756 1.134 4.049 4.049 0 0 0 2.282.38c1.9 0 2.562-.1 3.094-.434.56-.364.784-1.036.784-2.31 0-1.12-.182-1.694-.672-2.072-.42-.336-.938-.434-2.66-.518a5.844 5.844 0 0 1-1.932-.2c-.476-.182-.672-.6-.672-1.442a1.8 1.8 0 0 1 .336-1.23c.294-.336.784-.42 2.24-.42 1.26 0 1.694.112 1.946.518a2.146 2.146 0 0 1 .2 1.2zm6.846.266h-.952v3.752c0 1.582-.476 2.072-1.974 2.072-1.162 0-1.456-.294-1.456-1.47V4.319h-.956v4.354c0 1.61.662 2.284 2.258 2.284 1.134 0 1.834-.308 2.17-.98l.028.028-.07.852h.952zm1.68 6.534h.952l-.042-.812h.014c.364.644.952.91 2.072.91 1.986.002 2.646-.812 2.646-3.29 0-2.6-.616-3.444-2.534-3.444a3.881 3.881 0 0 0-1.568.28.952.952 0 0 0-.56.672l-.028-.016v-3.64h-.952zm2.882-5.824c1.456 0 1.764.448 1.764 2.562s-.32 2.548-1.776 2.548c-1.61 0-1.89-.406-1.89-2.758.002-1.862.392-2.352 1.902-2.352zm9.324.994a1.971 1.971 0 0 0-.182-1.078c-.308-.518-.98-.728-2.408-.728-2.156 0-2.7.378-2.7 1.834 0 1.05.294 1.526 1.064 1.708a15.426 15.426 0 0 0 2.506.21c.742 0 .938.21.938 1.022 0 .966-.35 1.19-1.876 1.19a2.593 2.593 0 0 1-1.442-.238 1.219 1.219 0 0 1-.28-.868 2.848 2.848 0 0 1 .014-.308h-.98c-.014.14-.014.294-.014.378a1.64 1.64 0 0 0 .546 1.358 3.393 3.393 0 0 0 2.184.45c1.3 0 1.9-.126 2.31-.462a1.91 1.91 0 0 0 .518-1.47c0-1.106-.406-1.666-1.274-1.82a11.139 11.139 0 0 0-1.5-.1c-1.176-.056-1.176-.056-1.344-.126-.294-.1-.406-.364-.406-.952 0-.91.21-1.036 1.694-1.036 1.512 0 1.666.1 1.68 1.036zm6.076 2.464c0 1.4-.238 1.652-1.638 1.652-1.008 0-1.47-.1-1.666-.364a3.977 3.977 0 0 1-.392-2.17 4.193 4.193 0 0 1 .35-2.2c.252-.28.658-.378 1.484-.378 1.358 0 1.75.28 1.75 1.246v.168h.952a2.81 2.81 0 0 0-.168-1.19c-.292-.712-1.062-1.034-2.472-1.034-2.268 0-2.884.714-2.884 3.29 0 2.8.546 3.444 2.87 3.444 1.344 0 2.044-.21 2.422-.756a2.606 2.606 0 0 0 .35-1.708zm2.282-4.172v6.538h.952v-3.92a3.077 3.077 0 0 1 .182-1.288 1.443 1.443 0 0 1 1.4-.672c.77 0 1.078.28 1.078.966v.532h.938v-.448c0-1.274-.56-1.862-1.806-1.862a1.869 1.869 0 0 0-1.862.924l-.028-.014.1-.756zm6.594-2.8h-.952v1.078h.952zm0 2.8h-.952v6.538h.952zm1.68 0v9.338h.952v-3.57h.028c.378.63.952.868 2.142.868 1.876 0 2.506-.826 2.506-3.276a4.407 4.407 0 0 0-.6-2.814 2.594 2.594 0 0 0-1.946-.644c-1.19 0-1.792.266-2.156.938l-.014-.014.042-.826zm2.8.714c1.54 0 1.834.42 1.834 2.6 0 2.044-.322 2.506-1.764 2.506-1.54 0-1.9-.49-1.9-2.52 0-1.232.154-1.988.476-2.268a2.025 2.025 0 0 1 1.356-.318zm7.924-.714h-2.52V2.751h-.95v1.568h-.91v.8h.91v4a2.661 2.661 0 0 0 .1.994c.21.574.742.84 1.75.84 1.316 0 1.876-.574 1.876-1.918 0-.1 0-.294-.014-.49h-.882c.014.168.014.252.014.35 0 1.022-.182 1.246-.98 1.246-.728 0-.91-.21-.91-1.022v-4h2.52zm2.254-2.8h-.952v1.078h.952zm0 2.8h-.952v6.538h.952zm4.4-.1c-2.394 0-2.9.574-2.9 3.318 0 2.858.476 3.42 2.884 3.42s2.9-.56 2.9-3.346c-.002-2.83-.478-3.39-2.886-3.39zm0 .812c1.708 0 1.89.238 1.89 2.562 0 2.3-.182 2.548-1.9 2.548s-1.89-.238-1.89-2.59a4.455 4.455 0 0 1 .28-2.086c.186-.308.652-.432 1.618-.432zm4.366-.712v6.538h.994V6.923c0-1.358.56-1.89 2-1.89.812 0 1.218.14 1.386.5a2.279 2.279 0 0 1 .154 1.148v4.176h.952V6.601a2.971 2.971 0 0 0-.224-1.54 2.3 2.3 0 0 0-2.128-.84c-1.232 0-1.876.294-2.184 1.008l-.014-.014.014-.9z" data-name="Path 369"/>
    </g>
</svg>
