<svg xmlns="http://www.w3.org/2000/svg" width="49.317" height="33.369" viewBox="0 0 49.317 33.369">
    <defs>
        <style>
            .cls-1{opacity:.3}.cls-2{fill-rule:evenodd}
        </style>
    </defs>
    <g id="ic_revv_logo_menu" class="cls-1">
        <g id="Group_839" data-name="Group 839">
            <g id="Group_838" data-name="Group 838">
                <g id="Group_837" data-name="Group 837">
                    <path id="Path_709" d="M2418.069 407.73h1.14a.142.142 0 0 1 .151.091c.468.908.933 1.814 1.4 2.716.313.587.6 1.18.92 1.763s.593 1.147.889 1.719c.012.024.013.059.046.059s.046-.035.058-.061c.436-.844.878-1.684 1.313-2.524.3-.573.593-1.147.884-1.722.326-.643.656-1.292 1-1.935a.184.184 0 0 1 .186-.106h2.316c.091 0 .106.022.061.1-.284.54-.565 1.085-.846 1.623-.326.623-.646 1.246-.972 1.865-.233.447-.47.9-.7 1.346q-.441.857-.888 1.713c-.381.734-.766 1.466-1.142 2.2-.4.762-.8 1.524-1.193 2.281-.018.03-.018.077-.059.081s-.06-.051-.073-.081c-.194-.371-.383-.737-.571-1.1-.394-.759-.791-1.515-1.182-2.282-.312-.6-.624-1.209-.943-1.819l-1.088-2.1c-.264-.5-.518-1.016-.781-1.522-.3-.583-.606-1.162-.908-1.741-.079-.157-.16-.314-.243-.47-.047-.081-.026-.1.066-.1z" class="cls-2" data-name="Path 709" transform="translate(-2382.16 -397.331)"/>
                    <path id="Path_710" d="M2169.559 410.123a.941.941 0 0 0 .164.358q.656 1.29 1.327 2.578c.149.3.3.584.451.874.013.025.019.06.048.06.052 0 .053-.044.066-.073l.666-1.3c.375-.712.736-1.418 1.106-2.128.43-.826.834-1.659 1.28-2.478a1.822 1.822 0 0 0 .1-.2c.054-.152.165-.172.307-.171.735.008 1.465.005 2.192.005.139 0 .144 0 .08.124-.227.443-.455.883-.688 1.324-.321.616-.639 1.235-.962 1.849-.33.63-.654 1.259-.982 1.889-.332.648-.673 1.3-1.006 1.945-.385.742-.771 1.475-1.15 2.221-.3.575-.595 1.15-.9 1.72-.029.056-.045.142-.111.142s-.068-.086-.088-.14q-.542-1.036-1.074-2.077c-.377-.721-.753-1.437-1.134-2.16-.32-.615-.632-1.232-.949-1.851-.062-.119-.126-.232-.186-.353-.02-.049-.044-.049-.089-.036a1.14 1.14 0 0 0-.17-.4c-.136-.288-.3-.564-.434-.855a.482.482 0 0 0-.175-.228c.06-.082.009-.149-.028-.218-.34-.658-.682-1.317-1.024-1.972-.135-.27-.283-.537-.417-.81-.058-.106-.053-.114.071-.114h2.279a.164.164 0 0 1 .175.11c.181.364.377.727.562 1.092.041.077.075.062.129.022-.038.143.049.25.106.361.157.291.31.592.458.89z" class="cls-2" data-name="Path 710" transform="translate(-2143.468 -397.242)"/>
                    <path id="Path_711" d="M1789.211 416.808c0-.918-.014-1.839 0-2.759a5.383 5.383 0 0 1 .4-1.964 5.538 5.538 0 0 1 1.463-2.082 5.655 5.655 0 0 1 2.344-1.251 5.206 5.206 0 0 1 1.158-.173c.422-.023.85-.005 1.275-.019.087 0 .124.019.124.116q-.012 1.012 0 2.021c0 .094-.037.116-.124.116-.4 0-.791 0-1.189.008a3.218 3.218 0 0 0-1.681.551 3.317 3.317 0 0 0-1.386 1.941 2.637 2.637 0 0 0-.108.761v5.567c0 .118-.027.151-.15.151-.661-.006-1.32-.006-1.986 0-.107 0-.146-.029-.146-.145.006-.947.006-1.893.006-2.839z" class="cls-2" data-name="Path 711" transform="translate(-1785.492 -398.12)"/>
                    <path id="Path_712" d="M2121.684 470.751a.074.074 0 0 1 .1.031c.116.189.2.393.3.586.14.249.263.5.4.751.033.055-.023.078-.021.116-.216.345-.467.664-.7.991q-.779 1.093-1.564 2.181c-.252.348-.5.7-.759 1.053a.319.319 0 0 1-.048.047c-.015.006-.031.015-.045-.007a4.609 4.609 0 0 0-.458-.485c-.315-.321-.64-.636-.96-.955-.036-.04-.1-.054-.109-.127.212-.229.422-.458.628-.689.457-.49.9-.976 1.351-1.463q.74-.794 1.482-1.6c.132-.14.267-.281.403-.43z" class="cls-2" data-name="Path 712" transform="translate(-2097.902 -457.238)"/>
                    <path id="Path_713" d="M2231.156 298.118c-.092-.063-.115-.175-.163-.265-.156-.277-.293-.566-.446-.842-.042-.086.053-.1.046-.15.407-.44.815-.885 1.226-1.326.448-.489.9-.978 1.346-1.461.288-.313.579-.625.868-.938 0-.035 0-.069.031-.1.288-.276.542-.6.826-.88a.213.213 0 0 1 .108-.066c.174-.189.346-.372.515-.559.507-.555 1.021-1.1 1.525-1.656a.208.208 0 0 1 .073-.058 1.632 1.632 0 0 1-.238.363l-1.718 2.385q-1.168 1.625-2.345 3.251c-.53.752-1.074 1.493-1.608 2.245a.328.328 0 0 1-.046.057z" class="cls-2" data-name="Path 713" transform="translate(-2205.065 -285.238)"/>
                    <path id="Path_714" d="M1898.993 814.186a.7.7 0 0 1-.87.681 13.462 13.462 0 0 1-1.858-.683c-.183-.08-.352-.17-.535-.252a.716.716 0 0 1-.333-.956.7.7 0 0 1 .947-.34c.294.137.584.27.879.391.427.18.865.326 1.3.471a.689.689 0 0 1 .47.688z" class="cls-2" data-name="Path 714" transform="translate(-1886.383 -782.207)"/>
                    <path id="Path_715" d="M1823.884 250.6a.7.7 0 0 1-.331.663 14.408 14.408 0 0 0-1.728 1.342.723.723 0 1 1-1.035-1.009 15.96 15.96 0 0 1 1.925-1.509.739.739 0 0 1 .884-.024.647.647 0 0 1 .285.537z" class="cls-2" data-name="Path 715" transform="translate(-1815.309 -247.306)"/>
                    <path id="Path_716" d="M2186.907 235.482a.722.722 0 0 1-1.158.6 15.306 15.306 0 0 0-1.932-1.217.72.72 0 0 1 .667-1.276 15.812 15.812 0 0 1 2.143 1.351.668.668 0 0 1 .28.542z" class="cls-2" data-name="Path 716" transform="translate(-2160.284 -231.695)"/>
                    <path id="Path_717" d="M1816.036 757.433a.709.709 0 0 1 .554.185 16.137 16.137 0 0 0 1.638 1.349 1.246 1.246 0 0 1 .311.256.717.717 0 0 1-.023.908.707.707 0 0 1-.922.141 14.4 14.4 0 0 1-1.554-1.208 3.976 3.976 0 0 1-.507-.482.687.687 0 0 1-.067-.761.659.659 0 0 1 .57-.388z" class="cls-2" data-name="Path 717" transform="translate(-1810.379 -729.793)"/>
                    <path id="Path_718" d="M1756.333 680.754a.73.73 0 0 1 .637.368 13.688 13.688 0 0 0 .756 1.2c.167.241.344.475.514.709a.7.7 0 0 1 .088.751.688.688 0 0 1-.621.412.652.652 0 0 1-.573-.239 15.3 15.3 0 0 1-1.424-2.138.724.724 0 0 1 .623-1.063z" class="cls-2" data-name="Path 718" transform="translate(-1753.569 -656.894)"/>
                    <path id="Path_719" d="M1722.757 401.729a5.113 5.113 0 0 1 .193-.822 17.438 17.438 0 0 1 .572-1.7.732.732 0 0 1 .949-.431.713.713 0 0 1 .4.936 15.836 15.836 0 0 0-.7 2.192.725.725 0 0 1-.769.547.711.711 0 0 1-.628-.563c-.008-.05-.008-.103-.017-.159z" class="cls-2" data-name="Path 719" transform="translate(-1722.321 -388.776)"/>
                    <path id="Path_720" d="M2095.485 203.317a.707.707 0 0 1-.959.678 13.229 13.229 0 0 0-1.979-.531 1.2 1.2 0 0 1-.549-.19.74.74 0 0 1-.216-.819.716.716 0 0 1 .651-.456 3.9 3.9 0 0 1 .869.153 16.269 16.269 0 0 1 1.612.451.787.787 0 0 1 .524.429.543.543 0 0 1 .047.285z" class="cls-2" data-name="Path 720" transform="translate(-2073.11 -201.744)"/>
                    <path id="Path_721" d="M1722.637 593.774a.714.714 0 0 1-.69-.53 17.742 17.742 0 0 1-.675-2.3.721.721 0 0 1 1.306-.572 1.109 1.109 0 0 1 .136.409 13.564 13.564 0 0 0 .6 1.993.72.72 0 0 1-.677 1z" class="cls-2" data-name="Path 721" transform="translate(-1720.891 -570.649)"/>
                    <path id="Path_722" d="M1761.884 315.809a.792.792 0 0 1-.262.567 14 14 0 0 0-1.194 1.726.732.732 0 0 1-.988.274.713.713 0 0 1-.26-.994 15.7 15.7 0 0 1 1.4-2.016.721.721 0 0 1 1.02-.159.687.687 0 0 1 .284.602z" class="cls-2" data-name="Path 722" transform="translate(-1756.85 -309.231)"/>
                    <path id="Path_723" d="M1996.971 196.839a8.114 8.114 0 0 1 .829-.007.725.725 0 0 1 .727.717.706.706 0 0 1-.719.718c-.483-.016-.954.008-1.429.03a8.4 8.4 0 0 0-.853.084.723.723 0 0 1-.582-1.263.863.863 0 0 1 .51-.181 14.249 14.249 0 0 1 1.517-.098z" class="cls-2" data-name="Path 723" transform="translate(-1980.849 -196.824)"/>
                    <path id="Path_724" d="M1904.377 209.3a.7.7 0 0 1 .716.569.708.708 0 0 1-.507.827 15.531 15.531 0 0 0-2.147.806.711.711 0 0 1-.987-.446.7.7 0 0 1 .365-.851 15.036 15.036 0 0 1 2.165-.827.854.854 0 0 1 .395-.078z" class="cls-2" data-name="Path 724" transform="translate(-1892.176 -208.676)"/>
                    <path id="Path_725" d="M1715.4 494.08c-.03.437-.057.872-.051 1.313 0 .342.021.685.032 1.032a.7.7 0 0 1-.609.725.721.721 0 0 1-.793-.5 2.149 2.149 0 0 1-.05-.581 22.15 22.15 0 0 1-.008-1.263c.015-.287.019-.57.062-.857a.693.693 0 0 1 .8-.621.679.679 0 0 1 .617.715z" class="cls-2" data-name="Path 725" transform="translate(-1713.911 -478.707)"/>
                    <path id="Path_726" d="M1990.768 842.75a14.474 14.474 0 0 1-2.1-.174.713.713 0 0 1-.569-.823.722.722 0 0 1 .812-.6 13.753 13.753 0 0 0 2.23.16.73.73 0 0 1 .732.464.711.711 0 0 1-.66.969c-.145-.004-.294.004-.445.004z" class="cls-2" data-name="Path 726" transform="translate(-1974.572 -809.382)"/>
                    <path id="Path_727" d="M2264.528 293.618c-.224.194-.392.44-.613.647a2.332 2.332 0 0 1-.314.325c-.023.014-.027.049-.038.069 0-.006 0-.03-.014-.032-.286-.167-.419-.471-.623-.716-.316-.37-.625-.734-.961-1.088a1.033 1.033 0 0 1-.351-.513.745.745 0 0 1 .3-.771.717.717 0 0 1 .843.046 9.241 9.241 0 0 1 .9.953c.287.334.557.681.817 1.041a.138.138 0 0 0 .054.039z" class="cls-2" data-name="Path 727" transform="translate(-2234.594 -286.76)"/>
                    <path id="Path_728" d="M1950.05 418.489c-.068-.069-.12-.154-.19-.219-.339-.334-.665-.673-1.009-1.006a2.95 2.95 0 0 0-.373-.35 1.824 1.824 0 0 1-.145.137 11.752 11.752 0 0 1-1.057.995 3.225 3.225 0 0 1-1.87.653 3.092 3.092 0 0 1-1.453-.3c-.1-.043-.1-.067-.026-.132q2.137-2.139 4.274-4.273c.586-.593 1.173-1.186 1.766-1.769.068-.06.073-.106 0-.166-.118-.111-.232-.234-.346-.353a6.425 6.425 0 0 0-1.877-1.438 5.822 5.822 0 0 0-2.328-.554 5.553 5.553 0 0 0-1.735.236 5.486 5.486 0 0 0-2.6 1.663 5.246 5.246 0 0 0-.954 1.51 5.7 5.7 0 0 0-.384 2.934 5.487 5.487 0 0 0 1.014 2.588 5.646 5.646 0 0 0 1.694 1.528 5.724 5.724 0 0 0 1.165.513 5.39 5.39 0 0 0 1.776.256 5.624 5.624 0 0 0 1.736-.3 5.556 5.556 0 0 0 1.822-1.052c.378-.314.706-.678 1.054-1.02.022-.023.056-.042.046-.081zm-7.682-1.843c-.115.115-.12.119-.178-.031a3.258 3.258 0 0 1-.211-1.98 3.391 3.391 0 0 1 1.767-2.322 3.155 3.155 0 0 1 1.541-.368 3.435 3.435 0 0 1 1.318.292c.136.063.136.063.03.167l-4.267 4.243z" class="cls-2" data-name="Path 728" transform="translate(-1928.563 -399.219)"/>
                </g>
            </g>
        </g>
        <g id="Group_841" data-name="Group 841" transform="translate(46.938 9.968)">
            <g id="Group_840" data-name="Group 840">
                <path id="Path_729" d="M2665.928 399.14V399h1v.14h-.415v1.107h-.166v-1.107z" data-name="Path 729" transform="translate(-2665.928 -399)"/>
                <path id="Path_730" d="M2689.235 399l.393 1.047.395-1.047h.227v1.246h-.157v-1.037l-.389 1.037h-.141l-.389-1.037v1.037h-.157V399z" data-name="Path 730" transform="translate(-2687.871 -399)"/>
            </g>
        </g>
    </g>
</svg>
